<?xml version="1.0" encoding="UTF-8" standalone="no"?>
<svg
   xmlns:dc="http://purl.org/dc/elements/1.1/"
   xmlns:cc="http://creativecommons.org/ns#"
   xmlns:rdf="http://www.w3.org/1999/02/22-rdf-syntax-ns#"
   xmlns:svg="http://www.w3.org/2000/svg"
   xmlns="http://www.w3.org/2000/svg"
   viewBox="0 0 329.33334 141.33333"
   height="141.33333"
   width="329.33334"
   xml:space="preserve"
   id="svg2"
   version="1.1"><metadata
     id="metadata8"><rdf:RDF><cc:Work
         rdf:about=""><dc:format>image/svg+xml</dc:format><dc:type
           rdf:resource="http://purl.org/dc/dcmitype/StillImage" /></cc:Work></rdf:RDF></metadata><defs
     id="defs6"><clipPath
       id="clipPath18"
       clipPathUnits="userSpaceOnUse"><path
         id="path16"
         d="M 0,0 H 255.11812 V 141.73228 H 0 Z" /></clipPath><linearGradient
       id="linearGradient28"
       spreadMethod="pad"
       gradientTransform="matrix(0,79.81904,79.81904,0,73.190369,28.74339)"
       gradientUnits="userSpaceOnUse"
       y2="0"
       x2="1"
       y1="0"
       x1="0"><stop
         id="stop24"
         offset="0"
         style="stop-opacity:1;stop-color:#dbe7f0" /><stop
         id="stop26"
         offset="1"
         style="stop-opacity:1;stop-color:#05507d" /></linearGradient><linearGradient
       id="linearGradient38"
       spreadMethod="pad"
       gradientTransform="matrix(0,81.27617,81.27617,0,157.32565,27.958383)"
       gradientUnits="userSpaceOnUse"
       y2="0"
       x2="1"
       y1="0"
       x1="0"><stop
         id="stop34"
         offset="0"
         style="stop-opacity:1;stop-color:#dbe7f0" /><stop
         id="stop36"
         offset="1"
         style="stop-opacity:1;stop-color:#05507d" /></linearGradient><linearGradient
       id="linearGradient48"
       spreadMethod="pad"
       gradientTransform="matrix(0,79.81904,79.81904,0,204.1854,28.74339)"
       gradientUnits="userSpaceOnUse"
       y2="0"
       x2="1"
       y1="0"
       x1="0"><stop
         id="stop44"
         offset="0"
         style="stop-opacity:1;stop-color:#dbe7f0" /><stop
         id="stop46"
         offset="1"
         style="stop-opacity:1;stop-color:#05507d" /></linearGradient><linearGradient
       id="linearGradient58"
       spreadMethod="pad"
       gradientTransform="matrix(0,85.386103,85.386103,0,119.71406,25.208912)"
       gradientUnits="userSpaceOnUse"
       y2="0"
       x2="1"
       y1="0"
       x1="0"><stop
         id="stop54"
         offset="0"
         style="stop-opacity:1;stop-color:#dbe7f0" /><stop
         id="stop56"
         offset="1"
         style="stop-opacity:1;stop-color:#05507d" /></linearGradient></defs><g
     transform="matrix(1.3333333,0,0,-1.3333333,0,141.33333)"
     id="g10"><g
       transform="translate(-6,-25)"
       id="g12"><g
         id="g14" /><g
         id="g106"><g
           id="g104"
           clip-path="url(#clipPath18)"><g
             id="g102"><path
               id="path60"
               style="fill:#d91920;fill-opacity:1;fill-rule:nonzero;stroke:none"
               d="M 251.52,41.037 C 216.012,63.01 174.156,75.705 129.332,75.705 84.508,75.705 42.656,63.01 7.148,41.037 43.574,60.471 85.164,71.498 129.332,71.498 173.5,71.498 215.09,60.471 251.52,41.037" /><path
               id="path62"
               style="fill:#d91920;fill-opacity:1;fill-rule:nonzero;stroke:none"
               d="m 129.332,72.494 c 30.902,0 61.633,-5.527 90.457,-16.148 -28.453,12.078 -59.184,18.363 -90.457,18.363 -31.27,0 -62,-6.285 -90.457,-18.363 28.824,10.621 59.559,16.148 90.457,16.148 M 251.051,40.158 C 213.836,60.01 171.75,70.502 129.332,70.502 86.918,70.502 44.828,60.01 7.617,40.158 l -0.992,1.727 c 36.809,22.777 79.242,34.816 122.707,34.816 43.469,0 85.898,-12.039 122.711,-34.816 z" /><path
               id="path64"
               style="fill:#ffffff;fill-opacity:1;fill-rule:nonzero;stroke:none"
               d="m 109.551,76.986 h 2.566 c 0,0.621 0.082,1.219 0.223,1.797 0.18,1.949 0.406,3.887 0.68,5.816 -2.122,-1.859 -3.469,-4.578 -3.469,-7.613" /><path
               id="path66"
               style="fill:#ffffff;fill-opacity:1;fill-rule:nonzero;stroke:none"
               d="M 51.523,86.662 H 93.597 V 49.459 H 51.523 Z" /><g
               id="g74"><g
                 id="g72"><g
                   id="g70"><path
                     id="path68"
                     style="fill:url(#linearGradient28);stroke:none"
                     d="M 88.551,108.56 73.191,66.635 57.719,108.56 H 46.398 V 28.744 H 58.953 V 77.959 L 69.602,45.783 h 6.953 L 87.43,78.517 V 28.744 h 12.554 v 79.816 z" /></g></g></g><g
               id="g82"><g
                 id="g80"><g
                   id="g78"><path
                     id="path76"
                     style="fill:url(#linearGradient38);stroke:none"
                     d="m 143.816,104.416 c -4.371,-3.926 -6.5,-9.754 -6.5,-16.93 0,-12.332 3.028,-16.703 11.098,-20.066 l 9.527,-3.922 c 6.164,-2.469 7.512,-4.598 7.512,-13.117 0,-4.262 -0.449,-6.953 -2.129,-8.856 -1.234,-1.461 -3.14,-2.242 -6.054,-2.242 -2.805,0 -4.711,0.895 -5.832,2.129 -1.793,2.016 -2.243,4.707 -2.243,8.969 h -12.554 c 0,-8.41 1.347,-13.34 5.16,-17.153 3.359,-3.363 8.519,-5.269 15.469,-5.269 7.062,0 12.332,2.129 15.582,5.269 4.035,3.922 5.156,9.418 5.156,17.602 0,13.449 -2.578,18.496 -12.106,22.418 l -9.418,3.812 c -5.605,2.243 -6.613,4.262 -6.613,10.762 0,3.477 0.672,6.168 2.129,7.848 1.234,1.347 2.801,2.242 5.383,2.242 2.687,0 4.48,-0.895 5.601,-2.352 1.684,-2.132 1.907,-4.933 1.907,-8.523 h 12.558 c 0,7.625 -1.457,13.344 -5.605,17.379 -3.254,3.137 -7.961,4.82 -14.352,4.82 -5.715,0 -10.199,-1.793 -13.676,-4.82" /></g></g></g><g
               id="g90"><g
                 id="g88"><g
                   id="g86"><path
                     id="path84"
                     style="fill:url(#linearGradient48);stroke:none"
                     d="M 184.512,108.56 V 97.24 h 13.34 V 28.744 h 12.554 V 97.24 h 13.453 v 11.32 z" /></g></g></g><g
               id="g98"><g
                 id="g96"><g
                   id="g94"><path
                     id="path92"
                     style="fill:url(#linearGradient58);stroke:none"
                     d="m 113.02,84.599 c 1.792,1.575 4.136,2.536 6.707,2.536 2.562,0 4.898,-0.965 6.683,-2.547 -1.262,8.918 -3.523,17.605 -6.695,26.008 -3.172,-8.399 -5.434,-17.082 -6.695,-25.997 m -0.68,-5.816 c -0.328,-3.594 -0.5,-7.223 -0.5,-10.883 0,-10 1.258,-19.777 3.652,-29.25 -4.308,-1.691 -7.363,-5.875 -7.363,-10.785 0,-0.914 0.117,-1.801 0.316,-2.656 0.985,4.187 4.235,7.5 8.387,8.562 0.859,-2.882 1.816,-5.742 2.883,-8.562 1.066,2.82 2.023,5.68 2.879,8.562 4.156,-1.062 7.406,-4.375 8.39,-8.562 0.2,0.855 0.317,1.742 0.317,2.656 0,4.91 -3.055,9.094 -7.363,10.785 2.39,9.473 3.648,19.25 3.648,29.25 0,3.61 -0.164,7.192 -0.488,10.739 -0.75,3.39 -3.77,5.933 -7.371,5.933 -3.575,0 -6.575,-2.473 -7.387,-5.789" /></g></g></g><path
               id="path100"
               style="fill:#d91920;fill-opacity:1;fill-rule:nonzero;stroke:none"
               d="m 117.27,123.299 h -7.903 l 6.395,-4.645 -2.446,-7.519 6.399,4.644 6.394,-4.644 -2.441,7.519 6.394,4.645 h -7.906 l -2.441,7.519 z" /></g></g></g></g></g></svg>